<?xml version="1.0" encoding="UTF-8" standalone="no"?>
<svg
   width="1000"
   height="600"
   viewBox="0 0 1000 600"
   version="1.1"
   id="svg25287"
   xmlns="http://www.w3.org/2000/svg"
   xmlns:svg="http://www.w3.org/2000/svg">
  <defs
     id="defs25220">
    <style
       id="style25218">
      .cls-1 {
        fill: #ff0;
      }

      .cls-1, .cls-2, .cls-3 {
        stroke-width: 0px;
      }

      .cls-2 {
        fill: red;
      }

      .cls-3 {
        fill: none;
      }
    </style>
  </defs>
  <path
     id="path1011"
     class="cls-2"
     d="M 0,0 H 1000 V 600 H 0 Z" />
  <circle
     id="circle1009"
     class="cls-2"
     cx="500"
     cy="300"
     r="124" />
  <path
     id="path1043"
     class="cls-1"
     d="M 500,488.57 493.57,424.3 C 493.35,422.14 494.11,419.94 495.77,418.54 496.76,417.71 498.13,417.07 500,417.1 502.76,417.15 504.43,418.63 505.4,420.08 506.27,421.37 506.61,422.94 506.46,424.49 L 500,488.56 Z M 688.57,300 624.3,293.57 C 622.14,293.35 619.94,294.11 618.54,295.77 617.71,296.76 617.07,298.13 617.1,300 617.15,302.76 618.63,304.43 620.08,305.4 621.37,306.27 622.94,306.61 624.49,306.46 L 688.56,300 Z M 686.25,329.5 623.78,313.1 C 621.68,312.55 619.39,312.95 617.75,314.37 616.77,315.22 615.93,316.48 615.67,318.32 615.28,321.06 616.49,322.93 617.76,324.12 618.9,325.18 620.4,325.77 621.95,325.85 Z M 679.34,358.27 620.2,332.3 C 618.21,331.43 615.89,331.47 614.05,332.61 612.95,333.3 611.92,334.4 611.38,336.19 610.57,338.83 611.47,340.87 612.54,342.24 613.5,343.46 614.89,344.28 616.41,344.61 Z M 668.02,385.61 613.67,350.71 C 611.85,349.54 609.54,349.21 607.54,350.06 606.34,350.57 605.16,351.5 604.34,353.17 603.13,355.65 603.69,357.81 604.54,359.33 605.3,360.69 606.54,361.71 607.99,362.27 L 668.01,385.61 Z M 652.56,410.84 604.34,367.87 C 602.72,366.43 600.5,365.74 598.39,366.27 597.13,366.58 595.81,367.32 594.74,368.85 593.15,371.11 593.37,373.33 593.97,374.97 594.51,376.43 595.57,377.63 596.92,378.42 L 652.55,410.86 Z M 633.34,433.34 592.44,383.35 C 591.07,381.67 588.98,380.65 586.81,380.84 585.52,380.95 584.1,381.47 582.81,382.81 580.89,384.8 580.76,387.02 581.1,388.73 581.4,390.26 582.27,391.61 583.47,392.6 Z M 610.84,452.56 578.26,396.79 C 577.17,394.92 575.26,393.58 573.1,393.43 571.81,393.34 570.33,393.63 568.84,394.75 566.63,396.41 566.16,398.59 566.22,400.33 566.28,401.88 566.92,403.36 567.96,404.52 Z M 585.61,468.02 562.16,407.84 C 561.37,405.82 559.7,404.2 557.59,403.71 556.33,403.42 554.82,403.48 553.17,404.35 550.73,405.64 549.92,407.72 549.71,409.45 549.52,410.99 549.93,412.55 550.77,413.86 Z M 558.27,479.34 544.52,416.23 C 544.06,414.11 542.66,412.25 540.65,411.44 539.45,410.95 537.95,410.78 536.19,411.38 533.58,412.28 532.45,414.2 531.98,415.88 531.55,417.38 531.71,418.98 532.34,420.4 L 558.28,479.34 Z M 529.5,486.25 525.79,421.77 C 525.67,419.6 524.58,417.55 522.72,416.43 521.61,415.76 520.16,415.35 518.32,415.67 515.6,416.15 514.19,417.87 513.45,419.45 512.8,420.86 512.7,422.47 513.1,423.97 Z M 311.43,300 375.7,293.57 C 377.86,293.35 380.06,294.11 381.46,295.77 382.29,296.76 382.93,298.13 382.9,300 382.85,302.76 381.37,304.43 379.92,305.4 378.63,306.27 377.06,306.61 375.51,306.46 L 311.44,300 Z M 313.75,270.5 378.23,274.21 C 380.4,274.33 382.45,275.42 383.57,277.28 384.24,278.39 384.65,279.84 384.33,281.68 383.85,284.4 382.13,285.81 380.55,286.55 379.14,287.2 377.53,287.3 376.03,286.9 Z M 320.66,241.73 383.77,255.48 C 385.89,255.94 387.75,257.34 388.56,259.35 389.05,260.55 389.22,262.05 388.62,263.81 387.72,266.42 385.8,267.55 384.12,268.02 382.62,268.45 381.02,268.29 379.6,267.66 L 320.66,241.72 Z M 331.98,214.39 392.16,237.84 C 394.18,238.63 395.8,240.3 396.29,242.41 396.58,243.67 396.52,245.18 395.65,246.83 394.36,249.27 392.28,250.08 390.55,250.29 389.01,250.48 387.45,250.07 386.14,249.23 Z M 347.44,189.16 403.21,221.74 C 405.08,222.83 406.42,224.74 406.57,226.9 406.66,228.19 406.37,229.67 405.25,231.16 403.59,233.37 401.41,233.84 399.67,233.78 398.12,233.72 396.64,233.08 395.48,232.04 Z M 366.66,166.66 416.65,207.56 C 418.33,208.93 419.35,211.02 419.16,213.19 419.05,214.48 418.53,215.9 417.19,217.19 415.2,219.11 412.98,219.24 411.27,218.9 409.74,218.6 408.39,217.73 407.4,216.53 Z M 389.16,147.44 432.13,195.66 C 433.57,197.28 434.26,199.5 433.73,201.61 433.42,202.87 432.68,204.19 431.15,205.26 428.89,206.85 426.67,206.63 425.03,206.03 423.57,205.49 422.37,204.43 421.58,203.08 L 389.14,147.45 Z M 414.39,131.98 449.29,186.33 C 450.46,188.15 450.79,190.46 449.94,192.46 449.43,193.66 448.5,194.84 446.83,195.66 444.35,196.87 442.19,196.31 440.67,195.46 439.31,194.7 438.29,193.46 437.73,192.01 L 414.39,131.99 Z M 441.73,120.66 467.7,179.8 C 468.57,181.79 468.53,184.11 467.39,185.95 466.7,187.05 465.6,188.08 463.81,188.62 461.17,189.43 459.13,188.53 457.76,187.46 456.54,186.5 455.72,185.11 455.39,183.59 Z M 470.5,113.75 486.9,176.22 C 487.45,178.32 487.05,180.61 485.63,182.25 484.78,183.23 483.52,184.07 481.68,184.33 478.94,184.72 477.07,183.51 475.88,182.24 474.82,181.1 474.23,179.6 474.15,178.05 Z M 500,111.43 506.43,175.7 C 506.65,177.86 505.89,180.06 504.23,181.46 503.24,182.29 501.87,182.93 500,182.9 497.24,182.85 495.57,181.37 494.6,179.92 493.73,178.63 493.39,177.06 493.54,175.51 L 500,111.44 Z M 470.5,486.25 486.9,423.78 C 487.45,421.68 487.05,419.39 485.63,417.75 484.78,416.77 483.52,415.93 481.68,415.67 478.94,415.28 477.07,416.49 475.88,417.76 474.82,418.9 474.23,420.4 474.15,421.95 Z M 441.73,479.34 467.7,420.2 C 468.57,418.21 468.53,415.89 467.39,414.05 466.7,412.95 465.6,411.92 463.81,411.38 461.17,410.57 459.13,411.47 457.76,412.54 456.54,413.5 455.72,414.89 455.39,416.41 Z M 414.39,468.02 449.29,413.67 C 450.46,411.85 450.79,409.54 449.94,407.54 449.43,406.34 448.5,405.16 446.83,404.34 444.35,403.13 442.19,403.69 440.67,404.54 439.31,405.3 438.29,406.54 437.73,407.99 L 414.39,468.01 Z M 389.16,452.56 432.13,404.34 C 433.57,402.72 434.26,400.5 433.73,398.39 433.42,397.13 432.68,395.81 431.15,394.74 428.89,393.15 426.67,393.37 425.03,393.97 423.57,394.51 422.37,395.57 421.58,396.92 L 389.14,452.55 Z M 366.66,433.34 416.65,392.44 C 418.33,391.07 419.35,388.98 419.16,386.81 419.05,385.52 418.53,384.1 417.19,382.81 415.2,380.89 412.98,380.76 411.27,381.1 409.74,381.4 408.39,382.27 407.4,383.47 Z M 347.44,410.84 403.21,378.26 C 405.08,377.17 406.42,375.26 406.57,373.1 406.66,371.81 406.37,370.33 405.25,368.84 403.59,366.63 401.41,366.16 399.67,366.22 398.12,366.28 396.64,366.92 395.48,367.96 Z M 331.98,385.61 392.16,362.16 C 394.18,361.37 395.8,359.7 396.29,357.59 396.58,356.33 396.52,354.82 395.65,353.17 394.36,350.73 392.28,349.92 390.55,349.71 389.01,349.52 387.45,349.93 386.14,350.77 Z M 320.66,358.27 383.77,344.52 C 385.89,344.06 387.75,342.66 388.56,340.65 389.05,339.45 389.22,337.95 388.62,336.19 387.72,333.58 385.8,332.45 384.12,331.98 382.62,331.55 381.02,331.71 379.6,332.34 L 320.66,358.28 Z M 313.75,329.5 378.23,325.79 C 380.4,325.67 382.45,324.58 383.57,322.72 384.24,321.61 384.65,320.16 384.33,318.32 383.85,315.6 382.13,314.19 380.55,313.45 379.14,312.8 377.53,312.7 376.03,313.1 Z M 529.5,113.75 525.79,178.23 C 525.67,180.4 524.58,182.45 522.72,183.57 521.61,184.24 520.16,184.65 518.32,184.33 515.6,183.85 514.19,182.13 513.45,180.55 512.8,179.14 512.7,177.53 513.1,176.03 Z M 558.27,120.66 544.52,183.77 C 544.06,185.89 542.66,187.75 540.65,188.56 539.45,189.05 537.95,189.22 536.19,188.62 533.58,187.72 532.45,185.8 531.98,184.12 531.55,182.62 531.71,181.02 532.34,179.6 L 558.28,120.66 Z M 585.61,131.98 562.16,192.16 C 561.37,194.18 559.7,195.8 557.59,196.29 556.33,196.58 554.82,196.52 553.17,195.65 550.73,194.36 549.92,192.28 549.71,190.55 549.52,189.01 549.93,187.45 550.77,186.14 Z M 610.84,147.44 578.26,203.21 C 577.17,205.08 575.26,206.42 573.1,206.57 571.81,206.66 570.33,206.37 568.84,205.25 566.63,203.59 566.16,201.41 566.22,199.67 566.28,198.12 566.92,196.64 567.96,195.48 Z M 633.34,166.66 592.44,216.65 C 591.07,218.33 588.98,219.35 586.81,219.16 585.52,219.05 584.1,218.53 582.81,217.19 580.89,215.2 580.76,212.98 581.1,211.27 581.4,209.74 582.27,208.39 583.47,207.4 Z M 652.56,189.16 604.34,232.13 C 602.72,233.57 600.5,234.26 598.39,233.73 597.13,233.42 595.81,232.68 594.74,231.15 593.15,228.89 593.37,226.67 593.97,225.03 594.51,223.57 595.57,222.37 596.92,221.58 L 652.55,189.14 Z M 668.02,214.39 613.67,249.29 C 611.85,250.46 609.54,250.79 607.54,249.94 606.34,249.43 605.16,248.5 604.34,246.83 603.13,244.35 603.69,242.19 604.54,240.67 605.3,239.31 606.54,238.29 607.99,237.73 L 668.01,214.39 Z M 679.34,241.73 620.2,267.7 C 618.21,268.57 615.89,268.53 614.05,267.39 612.95,266.7 611.92,265.6 611.38,263.81 610.57,261.17 611.47,259.13 612.54,257.76 613.5,256.54 614.89,255.72 616.41,255.39 Z M 686.25,270.5 623.78,286.9 C 621.68,287.45 619.39,287.05 617.75,285.63 616.77,284.78 615.93,283.52 615.67,281.68 615.28,278.94 616.49,277.07 617.76,275.88 618.9,274.82 620.4,274.23 621.95,274.15 Z" />
  <circle
     id="circle1015"
     class="cls-1"
     cx="500"
     cy="300"
     r="114" />
  <g
     id="g26230"
     transform="matrix(0.22748815,0,0,0.22748815,184.92891,237.21327)">
    <circle
       class="cls-2"
       cx="1385"
       cy="276"
       r="422"
       id="circle26220" />
    <ellipse
       style="fill:#ffff00;fill-opacity:1;stroke:none;stroke-width:2.84486;stroke-opacity:1;paint-order:markers fill stroke"
       id="ellipse26222"
       cx="1385"
       cy="266.32803"
       rx="378"
       ry="375.31601" />
    <ellipse
       class="cls-3"
       cx="1385"
       cy="251.42729"
       rx="381.38251"
       ry="375.31622"
       id="ellipse26224" />
    <path
       id="path26226"
       style="fill:#ff0000;fill-opacity:1;stroke:#ff0000;stroke-width:3.99874;stroke-dasharray:none;stroke-opacity:1;paint-order:markers fill stroke"
       d="M 1211.8019,-72.044201 1185.7916,-86.988707 1183.4072,-52.219309 C 1518.723,34.349538 1683.7495,294.24338 1738.2471,404.7086 L 1781.6011,380.55626 1753.7905,347.20686 C 1690.4298,219.72754 1525.5965,19.319499 1211.8019,-72.044201 Z M 1150.7688,-26.835363 1113.3842,-37.337903 1128.4949,-4.0408429 C 1449.8288,87.352408 1630.7552,339.55475 1692.6581,494.84877 L 1724.7096,485.02981 1720.0714,451.84919 C 1630.1905,271.42395 1483.0191,72.735559 1150.7688,-26.835363 Z M 1102.3541,16.753345 1072.0085,8.1753192 1087.0471,37.14198 C 1411.4731,156.85769 1549.9208,375.61986 1626.3467,563.23228 L 1666.7836,557.43722 1660.5403,530.59382 C 1633.9159,477.00988 1514.0523,147.40095 1102.3541,16.753345 Z M 1589.3644,592.9148 C 1532.3977,441.46797 1392.9745,189.34841 1067.3625,63.30824 L 1039.9424,57.826123 1047.0648,88.882048 C 1176.6713,121.23789 1477.723,343.64094 1549.4514,612.56174 L 1588.1699,617.4319 Z" />
    <path
       id="path26228"
       style="fill:#ff0000;fill-opacity:1;stroke:#ff0000;stroke-width:3.99874;stroke-dasharray:none;stroke-opacity:1;paint-order:markers fill stroke"
       d="M 1558.1981,-72.044201 1584.2084,-86.988707 1586.5927,-52.219309 C 1251.277,34.349538 1086.2505,294.24338 1031.7529,404.7086 L 988.39893,380.55626 1016.2095,347.20686 C 1079.5702,219.72754 1244.4034,19.319499 1558.1981,-72.044201 Z M 1619.2312,-26.835363 1656.6158,-37.337903 1641.505,-4.0408429 C 1320.1712,87.352408 1139.2448,339.55475 1077.3419,494.84877 L 1045.2904,485.02981 1049.9286,451.84919 C 1139.8095,271.42395 1286.9808,72.735559 1619.2312,-26.835363 Z M 1667.6459,16.753345 1697.9915,8.1753192 1682.9529,37.14198 C 1358.5269,156.85769 1220.0792,375.61986 1143.6533,563.23228 L 1103.2164,557.43722 1109.4597,530.59382 C 1136.0841,477.00988 1255.9477,147.40095 1667.6459,16.753345 Z M 1180.6356,592.9148 C 1237.6023,441.46797 1377.0255,189.34841 1702.6375,63.30824 L 1730.0576,57.826123 1722.9351,88.882048 C 1593.3287,121.23789 1292.277,343.64094 1220.5486,612.56174 L 1181.8301,617.4319 Z" />
  </g>
</svg>
